<svg width="51" height="41" viewBox="0 0 51 41" fill="none" xmlns="http://www.w3.org/2000/svg">
<g clip-path="url(#clip0_279_153)">
<path fill-rule="evenodd" clip-rule="evenodd" d="M44.3965 41H35.2324C31.7046 41 28.8201 37.9298 28.8201 34.1748C28.8201 20.1312 25.45 4.70481 41.6199 0.300438C48.9453 -1.69191 50.8545 6.89596 43.0642 7.48792C38.312 7.85016 37.3823 11.1192 37.2371 16.0581H44.5874C48.1152 16.0581 50.9998 19.1284 50.9998 22.8834V33.9672C50.9998 37.837 48.0281 41 44.3965 41ZM15.8667 41H6.70265C3.17482 41 0.290298 37.9298 0.290298 34.1748C0.290298 20.1312 -3.07982 4.70481 13.0901 0.300438C20.4197 -1.69633 22.3289 6.89154 14.5344 7.48792C9.78224 7.85016 8.85255 11.1192 8.70729 16.0581H16.0618C19.5896 16.0581 22.4741 19.1284 22.4741 22.8834V33.9672C22.47 37.837 19.4983 41 15.8667 41Z" fill="#CBACF9"/>
</g>
<defs>
<clipPath id="clip0_279_153">
<rect width="51" height="41" fill="white"/>
</clipPath>
</defs>
</svg>
